<svg width="24px" height="24px" viewBox="0 0 384 346" fill="none" xmlns="http://www.w3.org/2000/svg">
<path d="M276.8 15.4C327.5 15.4 368.7 56.7 368.7 107.7C368.7 133.9 357.8 157.5 340.4 174.3L192 324.1L41 171.6C25.2 155 15.4 132.5 15.4 107.7C15.4 56.7 56.5 15.4 107.3 15.4C145.5 15.4 178.2 38.8 192.1 72.2C205.8 38.9 238.6 15.4 276.8 15.4ZM276.8 0C243 0 212 15.8 192 41.8C172 15.8 141 0 107.2 0C48.1 0 0 48.3 0 107.7C0 135.6 10.6 162.1 29.9 182.3L181.1 335L192 346L202.9 335L351.2 185.2C372.2 164.9 384 137.3 384 107.7C384 48.3 335.9 0 276.8 0Z" fill="#FF0000"/>
<path d="M276.8 15.4C327.5 15.4 368.7 56.7 368.7 107.7C368.7 133.9 357.8 157.5 340.4 174.3L192 324.1L41 171.6C25.2 155 15.4 132.5 15.4 107.7C15.4 56.7 56.5 15.4 107.3 15.4C145.5 15.4 178.2 38.8 192.1 72.2C205.8 38.9 238.6 15.4 276.8 15.4Z" fill="#FF0000"/>
</svg>
